<svg xmlns="http://www.w3.org/2000/svg" xmlns:xlink="http://www.w3.org/1999/xlink" width="2000" zoomAndPan="magnify" viewBox="0 0 1500 1499.999933" height="2000" preserveAspectRatio="xMidYMid meet" version="1.0"><defs><clipPath id="7e1317c623"><path d="M 0 0 L 1499.992188 0 L 1499.992188 1499.992188 L 0 1499.992188 Z M 0 0 " clip-rule="nonzero"/></clipPath><clipPath id="c82d101096"><path d="M 1499.992188 749.996094 C 1499.992188 1164.207031 1164.207031 1499.992188 749.996094 1499.992188 C 335.785156 1499.992188 0 1164.207031 0 749.996094 C 0 335.785156 335.785156 0 749.996094 0 C 1164.207031 0 1499.992188 335.785156 1499.992188 749.996094 Z M 1499.992188 749.996094 " clip-rule="nonzero"/></clipPath><clipPath id="5207304850"><path d="M 0 0 L 1499.992188 0 L 1499.992188 1499.992188 L 0 1499.992188 Z M 0 0 " clip-rule="nonzero"/></clipPath><clipPath id="d2b563d3f3"><path d="M 1499.992188 749.996094 C 1499.992188 1164.207031 1164.207031 1499.992188 749.996094 1499.992188 C 335.785156 1499.992188 0 1164.207031 0 749.996094 C 0 335.785156 335.785156 0 749.996094 0 C 1164.207031 0 1499.992188 335.785156 1499.992188 749.996094 Z M 1499.992188 749.996094 " clip-rule="nonzero"/></clipPath><radialGradient gradientTransform="matrix(1, 0, 0, 1, 0.00003335, -0.00002)" gradientUnits="userSpaceOnUse" r="2121.311439" cx="0" id="06fcc2506d" cy="0" fx="0" fy="0"><stop stop-opacity="1" stop-color="rgb(7.839966%, 72.280884%, 59.97467%)" offset="0"/><stop stop-opacity="1" stop-color="rgb(7.839966%, 72.496033%, 59.931946%)" offset="0.015625"/><stop stop-opacity="1" stop-color="rgb(7.839966%, 72.679138%, 59.895325%)" offset="0.0273438"/><stop stop-opacity="1" stop-color="rgb(7.839966%, 72.86377%, 59.858704%)" offset="0.0390625"/><stop stop-opacity="1" stop-color="rgb(7.839966%, 73.046875%, 59.820557%)" offset="0.0507812"/><stop stop-opacity="1" stop-color="rgb(7.839966%, 73.231506%, 59.783936%)" offset="0.0625"/><stop stop-opacity="1" stop-color="rgb(7.839966%, 73.414612%, 59.747314%)" offset="0.0742188"/><stop stop-opacity="1" stop-color="rgb(7.839966%, 73.597717%, 59.710693%)" offset="0.0859375"/><stop stop-opacity="1" stop-color="rgb(7.839966%, 73.782349%, 59.674072%)" offset="0.0976562"/><stop stop-opacity="1" stop-color="rgb(7.839966%, 73.965454%, 59.637451%)" offset="0.109375"/><stop stop-opacity="1" stop-color="rgb(7.839966%, 74.150085%, 59.60083%)" offset="0.121094"/><stop stop-opacity="1" stop-color="rgb(7.839966%, 74.424744%, 59.545898%)" offset="0.132812"/><stop stop-opacity="1" stop-color="rgb(7.839966%, 74.79248%, 59.47113%)" offset="0.15625"/><stop stop-opacity="1" stop-color="rgb(7.839966%, 75.160217%, 59.397888%)" offset="0.179688"/><stop stop-opacity="1" stop-color="rgb(7.839966%, 75.527954%, 59.324646%)" offset="0.203125"/><stop stop-opacity="1" stop-color="rgb(7.839966%, 75.894165%, 59.251404%)" offset="0.226562"/><stop stop-opacity="1" stop-color="rgb(7.839966%, 76.261902%, 59.176636%)" offset="0.25"/><stop stop-opacity="1" stop-color="rgb(7.839966%, 76.599121%, 59.109497%)" offset="0.273438"/><stop stop-opacity="1" stop-color="rgb(7.839966%, 76.905823%, 59.048462%)" offset="0.292969"/><stop stop-opacity="1" stop-color="rgb(7.839966%, 77.212524%, 58.987427%)" offset="0.3125"/><stop stop-opacity="1" stop-color="rgb(7.839966%, 77.5177%, 58.926392%)" offset="0.332031"/><stop stop-opacity="1" stop-color="rgb(7.839966%, 77.824402%, 58.863831%)" offset="0.351562"/><stop stop-opacity="1" stop-color="rgb(7.839966%, 78.131104%, 58.802795%)" offset="0.371094"/><stop stop-opacity="1" stop-color="rgb(7.839966%, 78.405762%, 58.747864%)" offset="0.390625"/><stop stop-opacity="1" stop-color="rgb(7.839966%, 78.651428%, 58.699036%)" offset="0.40625"/><stop stop-opacity="1" stop-color="rgb(7.839966%, 78.895569%, 58.650208%)" offset="0.421875"/><stop stop-opacity="1" stop-color="rgb(7.839966%, 79.202271%, 58.589172%)" offset="0.4375"/><stop stop-opacity="1" stop-color="rgb(7.839966%, 79.508972%, 58.526611%)" offset="0.460938"/><stop stop-opacity="1" stop-color="rgb(7.839966%, 79.512024%, 58.633423%)" offset="0.476562"/><stop stop-opacity="1" stop-color="rgb(7.839966%, 79.240417%, 58.850098%)" offset="0.507812"/><stop stop-opacity="1" stop-color="rgb(7.839966%, 78.936768%, 59.01947%)" offset="0.511719"/><stop stop-opacity="1" stop-color="rgb(7.839966%, 78.634644%, 59.187317%)" offset="0.515625"/><stop stop-opacity="1" stop-color="rgb(7.839966%, 78.330994%, 59.355164%)" offset="0.519531"/><stop stop-opacity="1" stop-color="rgb(7.839966%, 78.027344%, 59.524536%)" offset="0.523438"/><stop stop-opacity="1" stop-color="rgb(7.839966%, 77.723694%, 59.692383%)" offset="0.527344"/><stop stop-opacity="1" stop-color="rgb(7.839966%, 77.420044%, 59.861755%)" offset="0.53125"/><stop stop-opacity="1" stop-color="rgb(7.839966%, 77.11792%, 60.029602%)" offset="0.535156"/><stop stop-opacity="1" stop-color="rgb(7.839966%, 76.81427%, 60.198975%)" offset="0.539062"/><stop stop-opacity="1" stop-color="rgb(7.839966%, 76.51062%, 60.366821%)" offset="0.542969"/><stop stop-opacity="1" stop-color="rgb(7.839966%, 76.20697%, 60.534668%)" offset="0.546875"/><stop stop-opacity="1" stop-color="rgb(7.839966%, 75.904846%, 60.704041%)" offset="0.550781"/><stop stop-opacity="1" stop-color="rgb(7.839966%, 75.601196%, 60.871887%)" offset="0.554688"/><stop stop-opacity="1" stop-color="rgb(7.839966%, 75.297546%, 61.04126%)" offset="0.558594"/><stop stop-opacity="1" stop-color="rgb(7.839966%, 74.993896%, 61.209106%)" offset="0.5625"/><stop stop-opacity="1" stop-color="rgb(7.839966%, 74.691772%, 61.378479%)" offset="0.566406"/><stop stop-opacity="1" stop-color="rgb(7.839966%, 74.388123%, 61.546326%)" offset="0.570312"/><stop stop-opacity="1" stop-color="rgb(7.839966%, 74.084473%, 61.715698%)" offset="0.574219"/><stop stop-opacity="1" stop-color="rgb(7.839966%, 73.780823%, 61.883545%)" offset="0.578125"/><stop stop-opacity="1" stop-color="rgb(7.839966%, 73.478699%, 62.051392%)" offset="0.582031"/><stop stop-opacity="1" stop-color="rgb(7.839966%, 73.175049%, 62.220764%)" offset="0.585938"/><stop stop-opacity="1" stop-color="rgb(7.839966%, 72.871399%, 62.388611%)" offset="0.589844"/><stop stop-opacity="1" stop-color="rgb(7.839966%, 72.567749%, 62.557983%)" offset="0.59375"/><stop stop-opacity="1" stop-color="rgb(7.839966%, 72.265625%, 62.72583%)" offset="0.597656"/><stop stop-opacity="1" stop-color="rgb(7.839966%, 71.961975%, 62.895203%)" offset="0.601562"/><stop stop-opacity="1" stop-color="rgb(7.839966%, 71.658325%, 63.063049%)" offset="0.605469"/><stop stop-opacity="1" stop-color="rgb(7.839966%, 71.354675%, 63.230896%)" offset="0.609375"/><stop stop-opacity="1" stop-color="rgb(7.839966%, 71.052551%, 63.400269%)" offset="0.613281"/><stop stop-opacity="1" stop-color="rgb(7.839966%, 70.748901%, 63.568115%)" offset="0.617188"/><stop stop-opacity="1" stop-color="rgb(7.839966%, 70.445251%, 63.737488%)" offset="0.621094"/><stop stop-opacity="1" stop-color="rgb(7.839966%, 70.141602%, 63.905334%)" offset="0.625"/><stop stop-opacity="1" stop-color="rgb(7.839966%, 69.839478%, 64.074707%)" offset="0.628906"/><stop stop-opacity="1" stop-color="rgb(7.839966%, 69.535828%, 64.242554%)" offset="0.632812"/><stop stop-opacity="1" stop-color="rgb(7.839966%, 69.232178%, 64.411926%)" offset="0.636719"/><stop stop-opacity="1" stop-color="rgb(7.839966%, 68.928528%, 64.579773%)" offset="0.640625"/><stop stop-opacity="1" stop-color="rgb(7.839966%, 68.624878%, 64.74762%)" offset="0.644531"/><stop stop-opacity="1" stop-color="rgb(7.839966%, 68.322754%, 64.916992%)" offset="0.648438"/><stop stop-opacity="1" stop-color="rgb(7.839966%, 68.019104%, 65.084839%)" offset="0.652344"/><stop stop-opacity="1" stop-color="rgb(7.839966%, 67.715454%, 65.254211%)" offset="0.65625"/><stop stop-opacity="1" stop-color="rgb(7.839966%, 67.411804%, 65.422058%)" offset="0.660156"/><stop stop-opacity="1" stop-color="rgb(7.839966%, 67.10968%, 65.591431%)" offset="0.664062"/><stop stop-opacity="1" stop-color="rgb(7.839966%, 66.80603%, 65.759277%)" offset="0.667969"/><stop stop-opacity="1" stop-color="rgb(7.839966%, 66.50238%, 65.927124%)" offset="0.671875"/><stop stop-opacity="1" stop-color="rgb(7.839966%, 66.19873%, 66.096497%)" offset="0.675781"/><stop stop-opacity="1" stop-color="rgb(7.839966%, 65.896606%, 66.264343%)" offset="0.679688"/><stop stop-opacity="1" stop-color="rgb(7.839966%, 65.592957%, 66.433716%)" offset="0.683594"/><stop stop-opacity="1" stop-color="rgb(7.839966%, 65.289307%, 66.601562%)" offset="0.6875"/><stop stop-opacity="1" stop-color="rgb(7.839966%, 64.985657%, 66.770935%)" offset="0.691406"/><stop stop-opacity="1" stop-color="rgb(7.839966%, 64.683533%, 66.938782%)" offset="0.695312"/><stop stop-opacity="1" stop-color="rgb(7.839966%, 64.379883%, 67.108154%)" offset="0.699219"/><stop stop-opacity="1" stop-color="rgb(7.839966%, 64.076233%, 67.276001%)" offset="0.703125"/><stop stop-opacity="1" stop-color="rgb(7.839966%, 63.772583%, 67.443848%)" offset="0.707031"/><stop stop-opacity="1" stop-color="rgb(7.839966%, 63.470459%, 67.61322%)" offset="0.710938"/><stop stop-opacity="1" stop-color="rgb(7.839966%, 63.166809%, 67.781067%)" offset="0.714844"/><stop stop-opacity="1" stop-color="rgb(7.839966%, 62.863159%, 67.950439%)" offset="0.71875"/><stop stop-opacity="1" stop-color="rgb(7.839966%, 62.559509%, 68.118286%)" offset="0.722656"/><stop stop-opacity="1" stop-color="rgb(7.839966%, 62.257385%, 68.287659%)" offset="0.726562"/><stop stop-opacity="1" stop-color="rgb(7.839966%, 61.953735%, 68.455505%)" offset="0.730469"/><stop stop-opacity="1" stop-color="rgb(7.839966%, 61.650085%, 68.623352%)" offset="0.734375"/><stop stop-opacity="1" stop-color="rgb(7.839966%, 61.346436%, 68.792725%)" offset="0.738281"/><stop stop-opacity="1" stop-color="rgb(7.839966%, 61.044312%, 68.960571%)" offset="0.742188"/><stop stop-opacity="1" stop-color="rgb(7.839966%, 60.740662%, 69.129944%)" offset="0.746094"/><stop stop-opacity="1" stop-color="rgb(7.839966%, 60.437012%, 69.297791%)" offset="0.75"/><stop stop-opacity="1" stop-color="rgb(7.839966%, 60.133362%, 69.467163%)" offset="0.753906"/><stop stop-opacity="1" stop-color="rgb(7.839966%, 59.829712%, 69.63501%)" offset="0.757812"/><stop stop-opacity="1" stop-color="rgb(7.839966%, 59.527588%, 69.804382%)" offset="0.761719"/><stop stop-opacity="1" stop-color="rgb(7.839966%, 59.223938%, 69.972229%)" offset="0.765625"/><stop stop-opacity="1" stop-color="rgb(7.839966%, 58.920288%, 70.140076%)" offset="0.769531"/><stop stop-opacity="1" stop-color="rgb(7.839966%, 58.616638%, 70.309448%)" offset="0.773438"/><stop stop-opacity="1" stop-color="rgb(7.839966%, 58.314514%, 70.477295%)" offset="0.777344"/><stop stop-opacity="1" stop-color="rgb(7.839966%, 58.010864%, 70.646667%)" offset="0.78125"/><stop stop-opacity="1" stop-color="rgb(7.839966%, 57.707214%, 70.814514%)" offset="0.785156"/><stop stop-opacity="1" stop-color="rgb(7.839966%, 57.403564%, 70.983887%)" offset="0.789062"/><stop stop-opacity="1" stop-color="rgb(7.839966%, 57.10144%, 71.151733%)" offset="0.792969"/><stop stop-opacity="1" stop-color="rgb(7.839966%, 56.797791%, 71.321106%)" offset="0.796875"/><stop stop-opacity="1" stop-color="rgb(7.839966%, 56.494141%, 71.488953%)" offset="0.800781"/><stop stop-opacity="1" stop-color="rgb(7.839966%, 56.190491%, 71.656799%)" offset="0.804688"/><stop stop-opacity="1" stop-color="rgb(7.839966%, 55.888367%, 71.826172%)" offset="0.808594"/><stop stop-opacity="1" stop-color="rgb(7.839966%, 55.584717%, 71.994019%)" offset="0.8125"/><stop stop-opacity="1" stop-color="rgb(7.839966%, 55.281067%, 72.163391%)" offset="0.816406"/><stop stop-opacity="1" stop-color="rgb(7.839966%, 54.977417%, 72.331238%)" offset="0.820312"/><stop stop-opacity="1" stop-color="rgb(7.839966%, 54.675293%, 72.50061%)" offset="0.824219"/><stop stop-opacity="1" stop-color="rgb(7.839966%, 54.371643%, 72.668457%)" offset="0.828125"/><stop stop-opacity="1" stop-color="rgb(7.839966%, 54.067993%, 72.836304%)" offset="0.832031"/><stop stop-opacity="1" stop-color="rgb(7.839966%, 53.764343%, 73.005676%)" offset="0.835938"/><stop stop-opacity="1" stop-color="rgb(7.839966%, 53.462219%, 73.173523%)" offset="0.839844"/><stop stop-opacity="1" stop-color="rgb(7.839966%, 53.158569%, 73.342896%)" offset="0.84375"/><stop stop-opacity="1" stop-color="rgb(7.839966%, 52.854919%, 73.510742%)" offset="0.847656"/><stop stop-opacity="1" stop-color="rgb(7.839966%, 52.55127%, 73.680115%)" offset="0.851562"/><stop stop-opacity="1" stop-color="rgb(7.839966%, 52.249146%, 73.847961%)" offset="0.855469"/><stop stop-opacity="1" stop-color="rgb(7.839966%, 51.945496%, 74.017334%)" offset="0.859375"/><stop stop-opacity="1" stop-color="rgb(7.839966%, 51.641846%, 74.185181%)" offset="0.863281"/><stop stop-opacity="1" stop-color="rgb(7.839966%, 51.338196%, 74.353027%)" offset="0.867188"/><stop stop-opacity="1" stop-color="rgb(7.839966%, 51.034546%, 74.5224%)" offset="0.871094"/><stop stop-opacity="1" stop-color="rgb(7.839966%, 50.732422%, 74.690247%)" offset="0.875"/><stop stop-opacity="1" stop-color="rgb(7.839966%, 50.428772%, 74.859619%)" offset="0.878906"/><stop stop-opacity="1" stop-color="rgb(7.839966%, 50.125122%, 75.027466%)" offset="0.882812"/><stop stop-opacity="1" stop-color="rgb(7.839966%, 49.821472%, 75.196838%)" offset="0.886719"/><stop stop-opacity="1" stop-color="rgb(7.839966%, 49.519348%, 75.364685%)" offset="0.890625"/><stop stop-opacity="1" stop-color="rgb(7.839966%, 49.215698%, 75.532532%)" offset="0.894531"/><stop stop-opacity="1" stop-color="rgb(7.839966%, 48.912048%, 75.701904%)" offset="0.898438"/><stop stop-opacity="1" stop-color="rgb(7.839966%, 48.608398%, 75.869751%)" offset="0.902344"/><stop stop-opacity="1" stop-color="rgb(7.839966%, 48.306274%, 76.039124%)" offset="0.90625"/><stop stop-opacity="1" stop-color="rgb(7.839966%, 48.002625%, 76.20697%)" offset="0.910156"/><stop stop-opacity="1" stop-color="rgb(7.839966%, 47.698975%, 76.376343%)" offset="0.914062"/><stop stop-opacity="1" stop-color="rgb(7.839966%, 47.395325%, 76.544189%)" offset="0.917969"/><stop stop-opacity="1" stop-color="rgb(7.839966%, 47.093201%, 76.713562%)" offset="0.921875"/><stop stop-opacity="1" stop-color="rgb(7.839966%, 46.789551%, 76.881409%)" offset="0.925781"/><stop stop-opacity="1" stop-color="rgb(7.839966%, 46.485901%, 77.049255%)" offset="0.929688"/><stop stop-opacity="1" stop-color="rgb(7.839966%, 46.182251%, 77.218628%)" offset="0.933594"/><stop stop-opacity="1" stop-color="rgb(7.839966%, 45.880127%, 77.386475%)" offset="0.9375"/><stop stop-opacity="1" stop-color="rgb(7.839966%, 45.576477%, 77.555847%)" offset="0.941406"/><stop stop-opacity="1" stop-color="rgb(7.839966%, 45.272827%, 77.723694%)" offset="0.945312"/><stop stop-opacity="1" stop-color="rgb(7.839966%, 44.969177%, 77.893066%)" offset="0.949219"/><stop stop-opacity="1" stop-color="rgb(7.839966%, 44.667053%, 78.060913%)" offset="0.953125"/><stop stop-opacity="1" stop-color="rgb(7.839966%, 44.363403%, 78.22876%)" offset="0.957031"/><stop stop-opacity="1" stop-color="rgb(7.839966%, 44.059753%, 78.398132%)" offset="0.960938"/><stop stop-opacity="1" stop-color="rgb(7.839966%, 43.756104%, 78.565979%)" offset="0.964844"/><stop stop-opacity="1" stop-color="rgb(7.839966%, 43.453979%, 78.735352%)" offset="0.96875"/><stop stop-opacity="1" stop-color="rgb(7.839966%, 43.15033%, 78.903198%)" offset="0.972656"/><stop stop-opacity="1" stop-color="rgb(7.839966%, 42.84668%, 79.072571%)" offset="0.976562"/><stop stop-opacity="1" stop-color="rgb(7.839966%, 42.54303%, 79.240417%)" offset="0.980469"/><stop stop-opacity="1" stop-color="rgb(7.839966%, 42.240906%, 79.40979%)" offset="0.984375"/><stop stop-opacity="1" stop-color="rgb(7.839966%, 41.937256%, 79.577637%)" offset="0.988281"/><stop stop-opacity="1" stop-color="rgb(7.839966%, 41.633606%, 79.745483%)" offset="0.992188"/><stop stop-opacity="1" stop-color="rgb(7.839966%, 41.329956%, 79.914856%)" offset="0.996094"/><stop stop-opacity="1" stop-color="rgb(7.839966%, 41.178894%, 79.998779%)" offset="1"/></radialGradient><clipPath id="2f28ba1a9a"><rect x="0" width="1500" y="0" height="1500"/></clipPath><clipPath id="b6ff26589c"><path d="M 270 284.742188 L 1229 284.742188 L 1229 1025 L 270 1025 Z M 270 284.742188 " clip-rule="nonzero"/></clipPath><clipPath id="aa37dad1a1"><path d="M 513 1055 L 674 1055 L 674 1215.492188 L 513 1215.492188 Z M 513 1055 " clip-rule="nonzero"/></clipPath><clipPath id="4b372dee17"><path d="M 969 1055 L 1130 1055 L 1130 1215.492188 L 969 1215.492188 Z M 969 1055 " clip-rule="nonzero"/></clipPath></defs><g clip-path="url(#7e1317c623)"><g clip-path="url(#c82d101096)"><g transform="matrix(1, 0, 0, 1, 0, 0.000000000000112861)"><g clip-path="url(#2f28ba1a9a)"><g clip-path="url(#5207304850)"><g clip-path="url(#d2b563d3f3)"><path fill="url(#06fcc2506d)" d="M 0 0 L 0 1499.992188 L 1499.992188 1499.992188 L 1499.992188 0 Z M 0 0 " fill-rule="nonzero"/></g></g></g></g></g></g><g clip-path="url(#b6ff26589c)"><path fill="#ffffff" d="M 1219.550781 438.660156 C 1211.9375 429.433594 1200.601562 424.085938 1188.621094 424.085938 L 504.253906 424.085938 L 471.3125 313.433594 C 466.25 296.417969 450.621094 284.761719 432.871094 284.761719 L 310.421875 284.761719 C 288.269531 284.761719 270.308594 302.722656 270.308594 324.878906 C 270.308594 347.03125 288.269531 364.984375 310.421875 364.984375 L 402.953125 364.984375 L 552.859375 868.515625 C 536.613281 898.3125 521.199219 940.964844 538.675781 976.691406 C 554.148438 1008.328125 589.113281 1024.371094 642.582031 1024.371094 C 643.550781 1024.371094 644.519531 1024.332031 645.488281 1024.234375 C 648.960938 1023.917969 994.523438 992.234375 1113.667969 998.984375 C 1131.039062 999.914062 1146.085938 986.617188 1147.074219 969.148438 C 1148.0625 951.691406 1134.699219 936.730469 1117.230469 935.765625 C 996.265625 928.9375 669.605469 958.429688 641.175781 961.035156 C 611.859375 960.84375 598.28125 954.394531 595.570312 948.875 C 592.550781 942.726562 594.699219 931.105469 599.785156 917.957031 C 600.636719 917.910156 601.476562 917.898438 602.351562 917.792969 L 1125.878906 854.46875 C 1143.183594 852.367188 1157.152344 839.332031 1160.445312 822.234375 L 1228.011719 471.804688 C 1230.269531 460.039062 1227.171875 447.886719 1219.550781 438.660156 Z M 928.960938 633.234375 L 764.304688 633.234375 L 764.304688 504.308594 L 928.960938 504.308594 Z M 577.84375 671.230469 L 726.308594 671.230469 L 726.308594 821.992188 L 626.316406 834.09375 Z M 764.304688 671.230469 L 928.960938 671.230469 L 928.960938 797.476562 L 764.304688 817.390625 Z M 1115.199219 633.234375 L 966.964844 633.234375 L 966.964844 504.308594 L 1140.054688 504.308594 Z M 726.308594 504.308594 L 726.308594 633.234375 L 566.523438 633.234375 L 528.140625 504.308594 Z M 966.964844 792.875 L 966.964844 671.230469 L 1107.867188 671.230469 L 1087.214844 778.320312 Z M 966.964844 792.875 " fill-opacity="1" fill-rule="nonzero"/></g><g clip-path="url(#aa37dad1a1)"><path fill="#ffffff" d="M 673.527344 1135.433594 C 673.527344 1136.746094 673.496094 1138.054688 673.429688 1139.367188 C 673.367188 1140.675781 673.269531 1141.984375 673.140625 1143.289062 C 673.011719 1144.59375 672.851562 1145.894531 672.660156 1147.191406 C 672.46875 1148.488281 672.242188 1149.78125 671.988281 1151.066406 C 671.730469 1152.355469 671.445312 1153.632812 671.125 1154.90625 C 670.808594 1156.179688 670.457031 1157.441406 670.078125 1158.699219 C 669.695312 1159.953125 669.285156 1161.199219 668.84375 1162.433594 C 668.402344 1163.667969 667.929688 1164.890625 667.425781 1166.101562 C 666.925781 1167.3125 666.394531 1168.511719 665.832031 1169.699219 C 665.273438 1170.882812 664.683594 1172.054688 664.066406 1173.210938 C 663.445312 1174.371094 662.800781 1175.511719 662.125 1176.636719 C 661.453125 1177.761719 660.75 1178.867188 660.019531 1179.957031 C 659.292969 1181.050781 658.539062 1182.121094 657.757812 1183.175781 C 656.976562 1184.226562 656.167969 1185.261719 655.335938 1186.277344 C 654.503906 1187.289062 653.648438 1188.28125 652.765625 1189.253906 C 651.886719 1190.226562 650.980469 1191.175781 650.054688 1192.101562 C 649.125 1193.03125 648.175781 1193.933594 647.207031 1194.816406 C 646.234375 1195.695312 645.242188 1196.554688 644.226562 1197.386719 C 643.210938 1198.21875 642.179688 1199.023438 641.125 1199.804688 C 640.070312 1200.585938 639 1201.339844 637.910156 1202.070312 C 636.820312 1202.800781 635.710938 1203.5 634.585938 1204.175781 C 633.460938 1204.847656 632.320312 1205.496094 631.164062 1206.113281 C 630.007812 1206.730469 628.835938 1207.320312 627.648438 1207.882812 C 626.464844 1208.441406 625.265625 1208.972656 624.054688 1209.476562 C 622.839844 1209.976562 621.617188 1210.449219 620.382812 1210.890625 C 619.148438 1211.335938 617.902344 1211.746094 616.648438 1212.125 C 615.394531 1212.507812 614.128906 1212.855469 612.855469 1213.175781 C 611.585938 1213.492188 610.304688 1213.78125 609.019531 1214.039062 C 607.734375 1214.292969 606.441406 1214.515625 605.144531 1214.710938 C 603.84375 1214.902344 602.542969 1215.0625 601.238281 1215.191406 C 599.933594 1215.320312 598.625 1215.417969 597.316406 1215.480469 C 596.007812 1215.546875 594.695312 1215.578125 593.382812 1215.578125 C 592.070312 1215.578125 590.761719 1215.546875 589.449219 1215.480469 C 588.140625 1215.417969 586.832031 1215.320312 585.527344 1215.191406 C 584.222656 1215.0625 582.921875 1214.902344 581.625 1214.710938 C 580.328125 1214.515625 579.035156 1214.292969 577.75 1214.039062 C 576.460938 1213.78125 575.183594 1213.492188 573.910156 1213.175781 C 572.636719 1212.855469 571.375 1212.507812 570.117188 1212.125 C 568.863281 1211.746094 567.617188 1211.335938 566.382812 1210.890625 C 565.148438 1210.449219 563.925781 1209.976562 562.714844 1209.476562 C 561.5 1208.972656 560.304688 1208.441406 559.117188 1207.882812 C 557.929688 1207.320312 556.761719 1206.730469 555.605469 1206.113281 C 554.445312 1205.496094 553.304688 1204.847656 552.179688 1204.175781 C 551.054688 1203.5 549.949219 1202.800781 548.859375 1202.070312 C 547.765625 1201.34375 546.695312 1200.585938 545.640625 1199.804688 C 544.589844 1199.023438 543.554688 1198.21875 542.539062 1197.386719 C 541.527344 1196.554688 540.535156 1195.695312 539.5625 1194.816406 C 538.589844 1193.933594 537.640625 1193.03125 536.710938 1192.101562 C 535.785156 1191.175781 534.882812 1190.226562 534 1189.253906 C 533.121094 1188.28125 532.261719 1187.289062 531.429688 1186.277344 C 530.597656 1185.261719 529.792969 1184.226562 529.011719 1183.175781 C 528.230469 1182.121094 527.472656 1181.050781 526.746094 1179.957031 C 526.015625 1178.867188 525.316406 1177.761719 524.640625 1176.636719 C 523.96875 1175.511719 523.320312 1174.371094 522.703125 1173.210938 C 522.085938 1172.054688 521.496094 1170.882812 520.933594 1169.699219 C 520.371094 1168.511719 519.839844 1167.3125 519.339844 1166.101562 C 518.835938 1164.890625 518.367188 1163.667969 517.925781 1162.433594 C 517.480469 1161.199219 517.070312 1159.953125 516.691406 1158.699219 C 516.308594 1157.441406 515.960938 1156.179688 515.640625 1154.90625 C 515.320312 1153.632812 515.035156 1152.355469 514.777344 1151.066406 C 514.523438 1149.78125 514.300781 1148.488281 514.105469 1147.191406 C 513.914062 1145.894531 513.753906 1144.59375 513.625 1143.289062 C 513.496094 1141.984375 513.398438 1140.675781 513.335938 1139.367188 C 513.269531 1138.054688 513.238281 1136.746094 513.238281 1135.433594 C 513.238281 1134.121094 513.269531 1132.808594 513.335938 1131.5 C 513.398438 1130.191406 513.496094 1128.882812 513.625 1127.578125 C 513.753906 1126.273438 513.914062 1124.96875 514.105469 1123.671875 C 514.300781 1122.375 514.523438 1121.082031 514.777344 1119.796875 C 515.035156 1118.511719 515.320312 1117.230469 515.640625 1115.960938 C 515.960938 1114.6875 516.308594 1113.421875 516.691406 1112.167969 C 517.070312 1110.914062 517.480469 1109.667969 517.925781 1108.433594 C 518.367188 1107.199219 518.835938 1105.976562 519.339844 1104.761719 C 519.839844 1103.550781 520.371094 1102.351562 520.933594 1101.167969 C 521.496094 1099.980469 522.085938 1098.808594 522.703125 1097.652344 C 523.320312 1096.496094 523.96875 1095.355469 524.640625 1094.230469 C 525.316406 1093.105469 526.015625 1091.996094 526.746094 1090.90625 C 527.472656 1089.816406 528.230469 1088.746094 529.011719 1087.691406 C 529.792969 1086.636719 530.597656 1085.605469 531.429688 1084.589844 C 532.261719 1083.574219 533.121094 1082.582031 534 1081.609375 C 534.882812 1080.640625 535.785156 1079.691406 536.710938 1078.761719 C 537.640625 1077.835938 538.589844 1076.929688 539.5625 1076.050781 C 540.535156 1075.167969 541.527344 1074.3125 542.539062 1073.480469 C 543.554688 1072.648438 544.589844 1071.839844 545.640625 1071.058594 C 546.695312 1070.277344 547.765625 1069.523438 548.859375 1068.796875 C 549.949219 1068.066406 551.054688 1067.363281 552.179688 1066.691406 C 553.304688 1066.015625 554.445312 1065.371094 555.605469 1064.75 C 556.761719 1064.132812 557.929688 1063.542969 559.117188 1062.984375 C 560.304688 1062.421875 561.5 1061.890625 562.714844 1061.390625 C 563.925781 1060.886719 565.148438 1060.414062 566.382812 1059.972656 C 567.617188 1059.53125 568.863281 1059.121094 570.117188 1058.738281 C 571.375 1058.359375 572.636719 1058.007812 573.910156 1057.691406 C 575.183594 1057.371094 576.460938 1057.085938 577.75 1056.828125 C 579.035156 1056.574219 580.328125 1056.347656 581.625 1056.15625 C 582.921875 1055.964844 584.222656 1055.804688 585.527344 1055.675781 C 586.832031 1055.546875 588.140625 1055.449219 589.449219 1055.386719 C 590.761719 1055.320312 592.070312 1055.289062 593.382812 1055.289062 C 594.695312 1055.289062 596.007812 1055.320312 597.316406 1055.386719 C 598.625 1055.449219 599.933594 1055.546875 601.238281 1055.675781 C 602.542969 1055.804688 603.84375 1055.964844 605.144531 1056.15625 C 606.441406 1056.347656 607.734375 1056.574219 609.019531 1056.828125 C 610.304688 1057.085938 611.585938 1057.371094 612.855469 1057.691406 C 614.128906 1058.007812 615.394531 1058.359375 616.648438 1058.738281 C 617.902344 1059.121094 619.148438 1059.53125 620.382812 1059.972656 C 621.617188 1060.414062 622.839844 1060.886719 624.054688 1061.390625 C 625.265625 1061.890625 626.464844 1062.421875 627.648438 1062.984375 C 628.835938 1063.542969 630.007812 1064.132812 631.164062 1064.75 C 632.320312 1065.371094 633.460938 1066.015625 634.585938 1066.691406 C 635.710938 1067.363281 636.820312 1068.066406 637.910156 1068.796875 C 639 1069.523438 640.070312 1070.277344 641.125 1071.058594 C 642.179688 1071.839844 643.210938 1072.648438 644.226562 1073.480469 C 645.242188 1074.3125 646.234375 1075.167969 647.207031 1076.050781 C 648.175781 1076.929688 649.125 1077.835938 650.054688 1078.761719 C 650.980469 1079.691406 651.886719 1080.640625 652.765625 1081.609375 C 653.648438 1082.582031 654.503906 1083.574219 655.335938 1084.589844 C 656.167969 1085.605469 656.976562 1086.636719 657.757812 1087.691406 C 658.539062 1088.746094 659.292969 1089.816406 660.019531 1090.90625 C 660.75 1091.996094 661.453125 1093.105469 662.125 1094.230469 C 662.800781 1095.355469 663.445312 1096.496094 664.066406 1097.652344 C 664.683594 1098.808594 665.273438 1099.980469 665.832031 1101.167969 C 666.394531 1102.351562 666.925781 1103.550781 667.425781 1104.761719 C 667.929688 1105.976562 668.402344 1107.199219 668.84375 1108.433594 C 669.285156 1109.667969 669.695312 1110.914062 670.078125 1112.167969 C 670.457031 1113.421875 670.808594 1114.6875 671.125 1115.960938 C 671.445312 1117.230469 671.730469 1118.511719 671.988281 1119.796875 C 672.242188 1121.082031 672.46875 1122.375 672.660156 1123.671875 C 672.851562 1124.96875 673.011719 1126.273438 673.140625 1127.578125 C 673.269531 1128.882812 673.367188 1130.191406 673.429688 1131.5 C 673.496094 1132.808594 673.527344 1134.121094 673.527344 1135.433594 Z M 673.527344 1135.433594 " fill-opacity="1" fill-rule="nonzero"/></g><g clip-path="url(#4b372dee17)"><path fill="#ffffff" d="M 1129.507812 1135.433594 C 1129.507812 1136.746094 1129.476562 1138.054688 1129.414062 1139.367188 C 1129.347656 1140.675781 1129.253906 1141.984375 1129.125 1143.289062 C 1128.996094 1144.59375 1128.835938 1145.894531 1128.640625 1147.191406 C 1128.449219 1148.488281 1128.226562 1149.78125 1127.96875 1151.066406 C 1127.714844 1152.355469 1127.425781 1153.632812 1127.109375 1154.90625 C 1126.789062 1156.179688 1126.4375 1157.441406 1126.058594 1158.699219 C 1125.679688 1159.953125 1125.265625 1161.199219 1124.824219 1162.433594 C 1124.382812 1163.667969 1123.910156 1164.890625 1123.410156 1166.101562 C 1122.90625 1167.3125 1122.375 1168.511719 1121.816406 1169.699219 C 1121.253906 1170.882812 1120.664062 1172.054688 1120.046875 1173.210938 C 1119.429688 1174.371094 1118.78125 1175.511719 1118.105469 1176.636719 C 1117.433594 1177.761719 1116.730469 1178.867188 1116.003906 1179.957031 C 1115.273438 1181.050781 1114.519531 1182.121094 1113.738281 1183.175781 C 1112.957031 1184.226562 1112.148438 1185.261719 1111.316406 1186.277344 C 1110.484375 1187.289062 1109.628906 1188.28125 1108.75 1189.253906 C 1107.867188 1190.226562 1106.964844 1191.175781 1106.035156 1192.101562 C 1105.109375 1193.03125 1104.160156 1193.933594 1103.1875 1194.816406 C 1102.214844 1195.695312 1101.222656 1196.554688 1100.207031 1197.386719 C 1099.195312 1198.21875 1098.160156 1199.023438 1097.105469 1199.804688 C 1096.054688 1200.585938 1094.980469 1201.339844 1093.890625 1202.070312 C 1092.800781 1202.800781 1091.691406 1203.5 1090.566406 1204.175781 C 1089.441406 1204.847656 1088.300781 1205.496094 1087.144531 1206.113281 C 1085.988281 1206.730469 1084.816406 1207.320312 1083.632812 1207.882812 C 1082.445312 1208.441406 1081.246094 1208.972656 1080.035156 1209.476562 C 1078.824219 1209.976562 1077.601562 1210.449219 1076.363281 1210.890625 C 1075.128906 1211.335938 1073.886719 1211.746094 1072.628906 1212.125 C 1071.375 1212.507812 1070.109375 1212.855469 1068.839844 1213.175781 C 1067.566406 1213.492188 1066.285156 1213.78125 1065 1214.039062 C 1063.714844 1214.292969 1062.421875 1214.515625 1061.125 1214.710938 C 1059.828125 1214.902344 1058.527344 1215.0625 1057.222656 1215.191406 C 1055.914062 1215.320312 1054.609375 1215.417969 1053.296875 1215.480469 C 1051.988281 1215.546875 1050.675781 1215.578125 1049.363281 1215.578125 C 1048.054688 1215.578125 1046.742188 1215.546875 1045.433594 1215.480469 C 1044.121094 1215.417969 1042.816406 1215.320312 1041.507812 1215.191406 C 1040.203125 1215.0625 1038.902344 1214.902344 1037.605469 1214.710938 C 1036.308594 1214.515625 1035.015625 1214.292969 1033.730469 1214.039062 C 1032.441406 1213.78125 1031.164062 1213.492188 1029.890625 1213.175781 C 1028.621094 1212.855469 1027.355469 1212.507812 1026.101562 1212.125 C 1024.84375 1211.746094 1023.601562 1211.335938 1022.367188 1210.890625 C 1021.128906 1210.449219 1019.90625 1209.976562 1018.695312 1209.476562 C 1017.484375 1208.972656 1016.285156 1208.441406 1015.097656 1207.882812 C 1013.914062 1207.320312 1012.742188 1206.730469 1011.585938 1206.113281 C 1010.429688 1205.496094 1009.289062 1204.847656 1008.164062 1204.175781 C 1007.039062 1203.5 1005.929688 1202.800781 1004.839844 1202.070312 C 1003.75 1201.34375 1002.675781 1200.585938 1001.625 1199.804688 C 1000.570312 1199.023438 999.535156 1198.21875 998.523438 1197.386719 C 997.507812 1196.554688 996.515625 1195.695312 995.542969 1194.816406 C 994.570312 1193.933594 993.621094 1193.03125 992.695312 1192.101562 C 991.765625 1191.175781 990.863281 1190.226562 989.980469 1189.253906 C 989.101562 1188.28125 988.246094 1187.289062 987.414062 1186.277344 C 986.582031 1185.261719 985.773438 1184.226562 984.992188 1183.175781 C 984.210938 1182.121094 983.457031 1181.050781 982.726562 1179.957031 C 982 1178.867188 981.296875 1177.761719 980.625 1176.636719 C 979.949219 1175.511719 979.300781 1174.371094 978.683594 1173.210938 C 978.066406 1172.054688 977.476562 1170.882812 976.914062 1169.699219 C 976.355469 1168.511719 975.824219 1167.3125 975.320312 1166.101562 C 974.820312 1164.890625 974.347656 1163.667969 973.90625 1162.433594 C 973.464844 1161.199219 973.050781 1159.953125 972.671875 1158.699219 C 972.289062 1157.441406 971.941406 1156.179688 971.621094 1154.90625 C 971.304688 1153.632812 971.015625 1152.355469 970.761719 1151.066406 C 970.503906 1149.78125 970.28125 1148.488281 970.089844 1147.191406 C 969.894531 1145.894531 969.734375 1144.59375 969.605469 1143.289062 C 969.476562 1141.984375 969.382812 1140.675781 969.316406 1139.367188 C 969.253906 1138.054688 969.222656 1136.746094 969.222656 1135.433594 C 969.222656 1134.121094 969.253906 1132.808594 969.316406 1131.5 C 969.382812 1130.191406 969.476562 1128.882812 969.605469 1127.578125 C 969.734375 1126.273438 969.894531 1124.96875 970.089844 1123.671875 C 970.28125 1122.375 970.503906 1121.082031 970.761719 1119.796875 C 971.015625 1118.511719 971.304688 1117.230469 971.621094 1115.960938 C 971.941406 1114.6875 972.289062 1113.421875 972.671875 1112.167969 C 973.050781 1110.914062 973.464844 1109.667969 973.90625 1108.433594 C 974.347656 1107.199219 974.820312 1105.976562 975.320312 1104.761719 C 975.824219 1103.550781 976.355469 1102.351562 976.914062 1101.167969 C 977.476562 1099.980469 978.066406 1098.808594 978.683594 1097.652344 C 979.300781 1096.496094 979.949219 1095.355469 980.621094 1094.230469 C 981.296875 1093.105469 982 1091.996094 982.726562 1090.90625 C 983.457031 1089.816406 984.210938 1088.746094 984.992188 1087.691406 C 985.773438 1086.636719 986.582031 1085.605469 987.414062 1084.589844 C 988.246094 1083.574219 989.101562 1082.582031 989.980469 1081.609375 C 990.863281 1080.640625 991.765625 1079.691406 992.695312 1078.761719 C 993.621094 1077.835938 994.570312 1076.929688 995.542969 1076.050781 C 996.515625 1075.167969 997.507812 1074.3125 998.523438 1073.480469 C 999.535156 1072.648438 1000.570312 1071.839844 1001.625 1071.058594 C 1002.675781 1070.277344 1003.75 1069.523438 1004.839844 1068.796875 C 1005.929688 1068.066406 1007.039062 1067.363281 1008.164062 1066.691406 C 1009.289062 1066.015625 1010.429688 1065.371094 1011.585938 1064.75 C 1012.742188 1064.132812 1013.914062 1063.542969 1015.097656 1062.984375 C 1016.285156 1062.421875 1017.484375 1061.890625 1018.695312 1061.390625 C 1019.90625 1060.886719 1021.128906 1060.414062 1022.363281 1059.972656 C 1023.601562 1059.53125 1024.84375 1059.121094 1026.101562 1058.738281 C 1027.355469 1058.359375 1028.621094 1058.007812 1029.890625 1057.691406 C 1031.164062 1057.371094 1032.441406 1057.085938 1033.730469 1056.828125 C 1035.015625 1056.574219 1036.308594 1056.347656 1037.605469 1056.15625 C 1038.902344 1055.964844 1040.203125 1055.804688 1041.507812 1055.675781 C 1042.816406 1055.546875 1044.121094 1055.449219 1045.433594 1055.386719 C 1046.742188 1055.320312 1048.054688 1055.289062 1049.363281 1055.289062 C 1050.675781 1055.289062 1051.988281 1055.320312 1053.296875 1055.386719 C 1054.609375 1055.449219 1055.914062 1055.546875 1057.222656 1055.675781 C 1058.527344 1055.804688 1059.828125 1055.964844 1061.125 1056.15625 C 1062.421875 1056.347656 1063.714844 1056.574219 1065 1056.828125 C 1066.285156 1057.085938 1067.566406 1057.371094 1068.839844 1057.691406 C 1070.109375 1058.007812 1071.375 1058.359375 1072.628906 1058.738281 C 1073.886719 1059.121094 1075.128906 1059.53125 1076.363281 1059.972656 C 1077.601562 1060.414062 1078.824219 1060.886719 1080.035156 1061.390625 C 1081.246094 1061.890625 1082.445312 1062.421875 1083.632812 1062.984375 C 1084.816406 1063.542969 1085.988281 1064.132812 1087.144531 1064.75 C 1088.300781 1065.371094 1089.441406 1066.015625 1090.566406 1066.691406 C 1091.691406 1067.363281 1092.800781 1068.066406 1093.890625 1068.796875 C 1094.980469 1069.523438 1096.054688 1070.277344 1097.105469 1071.058594 C 1098.160156 1071.839844 1099.195312 1072.648438 1100.207031 1073.480469 C 1101.222656 1074.3125 1102.214844 1075.167969 1103.1875 1076.050781 C 1104.160156 1076.929688 1105.109375 1077.835938 1106.035156 1078.761719 C 1106.964844 1079.691406 1107.867188 1080.640625 1108.75 1081.609375 C 1109.628906 1082.582031 1110.484375 1083.574219 1111.316406 1084.589844 C 1112.148438 1085.605469 1112.957031 1086.636719 1113.738281 1087.691406 C 1114.519531 1088.746094 1115.273438 1089.816406 1116.003906 1090.90625 C 1116.730469 1091.996094 1117.433594 1093.105469 1118.105469 1094.230469 C 1118.78125 1095.355469 1119.429688 1096.496094 1120.046875 1097.652344 C 1120.664062 1098.808594 1121.253906 1099.980469 1121.816406 1101.167969 C 1122.375 1102.351562 1122.90625 1103.550781 1123.410156 1104.761719 C 1123.910156 1105.976562 1124.382812 1107.199219 1124.824219 1108.433594 C 1125.265625 1109.667969 1125.679688 1110.914062 1126.058594 1112.167969 C 1126.4375 1113.421875 1126.789062 1114.6875 1127.109375 1115.960938 C 1127.425781 1117.230469 1127.714844 1118.511719 1127.96875 1119.796875 C 1128.226562 1121.082031 1128.449219 1122.375 1128.640625 1123.671875 C 1128.835938 1124.96875 1128.996094 1126.273438 1129.125 1127.578125 C 1129.253906 1128.882812 1129.347656 1130.191406 1129.414062 1131.5 C 1129.476562 1132.808594 1129.507812 1134.121094 1129.507812 1135.433594 Z M 1129.507812 1135.433594 " fill-opacity="1" fill-rule="nonzero"/></g></svg>